# xmcd
#
# Track frame offsets: 
#        150
#        11353
#        30093
#        46435
#        56753
#        67233
#        91458
#        101780
#        113875
#        126483
#        137695
#        151060
#        162290
#        169883
#        188117
#        204078
#        215618
#        228273
#        243555
#        254933
#        266653
#        278963
#
# Disc length: 3948 seconds
#
# Revision: 0
# Processed by: cddbd v1.5.2PL0 Copyright (c) Steve Scherf et al.
# Submitted via: ExactAudioCopy v0.99pb4
#
DISCID=440f6a16
DTITLE=Various Artist - HOLD JOHNNYMU CASHOVI
DYEAR=2007
DGENRE=Folk
TTITLE0=BLUES FOLSOMSKE VEZNICE
TTITLE1=ORANZOVY EXPRES
TTITLE2=KDYBYCH JA BYL KOVAREM
TTITLE3=VELKA REKA
TTITLE4=KDYZ NAS TATA HRAL
TTITLE5=DALNICNI HLIDKA
TTITLE6=HEJ STROJVUDCE
TTITLE7=SLUNECNI SPAR
TTITLE8=JACKSON
TTITLE9=NAJEDNOU
TTITLE10=POLE S BAVLNOU
TTITLE11=POZDRAVUJTE ROSE
TTITLE12=SLAPEJ DAL
TTITLE13=CADILLAC
TTITLE14=LAREDO
TTITLE15=JEZDEC DALKY
TTITLE16=DABLOVO STADO
TTITLE17=KRATKY PRIBEH
TTITLE18=ZPIVAM PISNE VETRU Z HOR
TTITLE19=JE TO ZLE
TTITLE20=STALE MI NEKDO SCHAZI
TTITLE21=NEDELNI RANO
EXTD=
EXTT0=
EXTT1=
EXTT2=
EXTT3=
EXTT4=
EXTT5=
EXTT6=
EXTT7=
EXTT8=
EXTT9=
EXTT10=
EXTT11=
EXTT12=
EXTT13=
EXTT14=
EXTT15=
EXTT16=
EXTT17=
EXTT18=
EXTT19=
EXTT20=
EXTT21=
PLAYORDER=
